<svg aria-hidden="true" style="position: absolute; width: 0; height: 0; overflow: hidden;" version="1.1" xmlns="http://www.w3.org/2000/svg" xmlns:xlink="http://www.w3.org/1999/xlink">
<defs>
<symbol id="icon-clock" viewBox="0 0 32 32">
<path d="M21.701 18.826l-4.462-3.346v-6.816c0-0.685-0.554-1.239-1.239-1.239s-1.239 0.554-1.239 1.239v7.436c0 0.39 0.183 0.758 0.496 0.992l4.957 3.718c0.223 0.167 0.483 0.248 0.742 0.248 0.378 0 0.75-0.17 0.993-0.497 0.412-0.547 0.3-1.324-0.248-1.734z"></path>
<path d="M16 0c-8.823 0-16 7.177-16 16s7.177 16 16 16c8.823 0 16-7.177 16-16s-7.177-16-16-16zM16 29.521c-7.455 0-13.521-6.067-13.521-13.521s6.067-13.521 13.521-13.521c7.456 0 13.521 6.067 13.521 13.521s-6.067 13.521-13.521 13.521z"></path>
</symbol>
<symbol id="icon-stethoscope" viewBox="0 0 32 32">
<path d="M31.961 17.838c-0.236-1.638-1.523-2.925-3.162-3.162v-0.97c0-2.675-2.034-4.853-4.533-4.853-2.428 0-4.46 2.112-4.533 4.708h0.031l-0.031 0.005v10.51c0 3.36-2.512 6.088-5.6 6.088s-5.6-2.732-5.6-6.088v-0.91c0.773 0 1.6-0.561 1.6-2.133v-1.341c3.423-0.875 5.867-3.814 5.867-7.147v-1.112h-1.067l-0.022-6.941c-0.008-1.285-0.93-2.382-2.194-2.611-0.273-0.836-1.171-1.292-2.007-1.019s-1.292 1.171-1.019 2.007c0.273 0.836 1.171 1.292 2.007 1.019 0.447-0.146 0.807-0.483 0.983-0.919 0.683 0.194 1.157 0.816 1.162 1.526l0.024 6.938h-1.067v1.127c-0.043 1.855-1.286 3.467-3.070 3.979-0.954 0.303-1.979 0.303-2.933 0-1.782-0.514-3.022-2.125-3.063-3.979v-1.127h-1.6v-6.933c0.003-0.721 0.488-1.351 1.184-1.538 0.325 0.826 1.258 1.233 2.084 0.908s1.233-1.258 0.908-2.084c-0.325-0.826-1.258-1.233-2.084-0.908-0.448 0.176-0.793 0.543-0.941 1.001-1.278 0.218-2.214 1.325-2.218 2.621v6.933h-1.067v1.109c0 3.336 2.445 6.276 5.867 7.149v1.341c0 1.573 0.827 2.133 1.6 2.133v0.91c0 3.947 2.99 7.155 6.667 7.155s6.667-3.212 6.667-7.155v-10.485c0.053-2.024 1.61-3.671 3.467-3.671 1.911 0 3.467 1.698 3.467 3.787v0.968c-2.041 0.294-3.456 2.188-3.162 4.228s2.188 3.456 4.228 3.162c2.041-0.295 3.456-2.188 3.162-4.228zM11.2 2.901c-0.295 0-0.533-0.239-0.533-0.533s0.239-0.533 0.533-0.533c0.295 0 0.533 0.239 0.533 0.533s-0.239 0.533-0.533 0.533zM4.8 1.834c0.295 0 0.533 0.239 0.533 0.533s-0.239 0.533-0.533 0.533c-0.295 0-0.533-0.239-0.533-0.533s0.239-0.533 0.533-0.533zM1.067 12.543v-0.043h1.6v0.061c0.040 2.318 1.582 4.341 3.807 4.994 1.166 0.369 2.417 0.369 3.583 0 2.226-0.652 3.769-2.675 3.81-4.994v-0.061h1.067v0.043c0 2.967-2.287 5.578-5.44 6.209-0.74 0.148-1.499 0.185-2.25 0.11-0.247-0.024-0.493-0.061-0.737-0.112-3.153-0.63-5.44-3.241-5.44-6.208zM7.467 22.101c-0.48 0-0.533-0.747-0.533-1.067v-1.132c0.043 0.005 0.086 0.007 0.13 0.012 0.053 0.006 0.107 0.010 0.16 0.015 0.252 0.022 0.507 0.037 0.763 0.038h0.027c0.256 0 0.51-0.015 0.761-0.038 0.053-0.005 0.11-0.009 0.165-0.015 0.042-0.005 0.086-0.006 0.128-0.012v1.132c0 0.32-0.053 1.067-0.533 1.067h-1.066zM28.266 21.034c-1.473 0-2.667-1.194-2.667-2.667s1.194-2.667 2.667-2.667 2.667 1.194 2.667 2.667c-0.002 1.472-1.195 2.665-2.667 2.667z"></path>
<path d="M28.266 16.767c-0.884 0-1.6 0.716-1.6 1.6s0.716 1.6 1.6 1.6c0.884 0 1.6-0.716 1.6-1.6s-0.716-1.6-1.6-1.6zM28.266 18.901c-0.295 0-0.533-0.239-0.533-0.533s0.239-0.533 0.533-0.533c0.295 0 0.533 0.239 0.533 0.533s-0.239 0.533-0.533 0.533z"></path>
</symbol>
<symbol id="icon-medicine" viewBox="0 0 32 32">
<path d="M31.524 6.362c-0.161-0.388-0.537-0.64-0.957-0.64h-0.831c-1.285 0-2.582-0.091-3.854-0.271-0.256-0.036-0.493 0.142-0.53 0.399s0.142 0.494 0.399 0.53c1.316 0.186 2.657 0.28 3.985 0.28h0.831c0.016 0 0.066 0 0.091 0.061s-0.010 0.096-0.021 0.107l-0.657 0.657c-0.388 0.388-0.904 0.602-1.452 0.602h-0.603c-0.799 0-1.55 0.311-2.115 0.876-0.388 0.388-0.904 0.602-1.453 0.602h-1.227c-0.402 0-0.805 0.083-1.175 0.241-0.059-0.032-0.119-0.064-0.183-0.094-0.463-0.218-0.997-0.298-1.502-0.224-0.442 0.065-0.865 0.266-1.192 0.566-0.369 0.34-0.578 0.777-0.587 1.231-0.001 0.034 0.001 0.069 0.002 0.103h-1.127v-4.66c0.004-0.003 0.007-0.005 0.011-0.008 1.33-1.137 3.131-1.54 4.818-1.076 0.551 0.151 1.114 0.288 1.674 0.405 0.253 0.053 0.502-0.109 0.555-0.362s-0.109-0.502-0.362-0.555c-0.541-0.114-1.086-0.246-1.619-0.392-1.745-0.479-3.592-0.172-5.077 0.816v-0.926c0.717-0.46 1.151-1.246 1.151-2.114 0-1.387-1.128-2.515-2.515-2.515s-2.515 1.128-2.515 2.515c0 0.865 0.432 1.649 1.144 2.11v0.926c-1.484-0.982-3.338-1.287-5.071-0.812-2.376 0.652-4.83 0.983-7.295 0.983h-0.831c-0.421 0-0.796 0.251-0.957 0.64s-0.073 0.832 0.225 1.129l0.657 0.657c0.565 0.565 1.316 0.876 2.115 0.876h0.603c0.549 0 1.065 0.214 1.452 0.602 0.565 0.565 1.316 0.876 2.115 0.876h0.473c-0.278 0.173-0.514 0.37-0.717 0.598-0.588 0.662-0.896 1.435-0.89 2.237 0.006 0.898 0.413 1.788 1.088 2.381 0.58 0.51 1.296 0.771 1.979 0.995 0.048 0.016 0.098 0.023 0.146 0.023 0.197 0 0.381-0.125 0.445-0.323 0.081-0.246-0.053-0.511-0.3-0.591-0.591-0.194-1.205-0.415-1.652-0.808-0.477-0.419-0.765-1.048-0.769-1.683-0.004-0.566 0.222-1.122 0.654-1.607 0.19-0.214 0.429-0.393 0.729-0.548 0.213-0.11 0.438-0.192 0.675-0.279 0.13-0.047 0.264-0.096 0.4-0.151 0.522-0.211 1.132-0.413 1.694-0.313 0.432 0.077 0.902 0.431 0.908 0.868 0.004 0.264-0.171 0.547-0.435 0.702s-0.622 0.203-0.985 0.131c-0.133-0.026-0.273-0.068-0.421-0.112-0.414-0.123-0.884-0.263-1.384-0.114-0.456 0.135-0.81 0.517-0.948 1.020s-0.025 1.012 0.299 1.36c0.299 0.321 0.707 0.464 1.005 0.569 1.61 0.567 3.251 1.114 4.882 1.628-0.381 0.133-0.774 0.285-1.148 0.484-0.544-0.18-1.087-0.359-1.632-0.538-0.246-0.081-0.511 0.054-0.591 0.3s0.054 0.511 0.3 0.591c0.324 0.106 0.648 0.214 0.973 0.32-0.853 0.813-1.271 1.974-1.18 3.307 0.085 1.246 0.812 2.361 2.102 3.226-0.276 0.217-0.539 0.455-0.779 0.724-0.754 0.845-1.137 1.878-1.052 2.835 0.105 1.174 0.951 2.169 2.012 2.366 0.028 0.005 0.057 0.008 0.085 0.008 0.13 0 0.255-0.054 0.344-0.151 0.109-0.118 0.15-0.284 0.108-0.44-0.226-0.841-0.406-1.651-0.13-2.318 0.141-0.341 0.396-0.624 0.698-0.864v4.297c0 0.754 0.613 1.367 1.367 1.367s1.367-0.613 1.367-1.367v-4.223c0.301 0.262 0.51 0.535 0.631 0.826 0.307 0.735 0.073 1.646-0.13 2.267-0.050 0.154-0.017 0.324 0.087 0.448 0.090 0.106 0.221 0.167 0.358 0.167 0.023 0 0.045-0.002 0.068-0.005 1.112-0.163 1.999-1.217 2.064-2.45 0.051-0.979-0.392-2.027-1.217-2.875-0.211-0.217-0.445-0.423-0.714-0.629 0.642-0.444 1.211-0.975 1.623-1.674 0.158-0.268 0.285-0.557 0.378-0.859 0.336-1.091 0.202-2.282-0.359-3.186-0.175-0.282-0.387-0.538-0.638-0.775l2.841-0.936c0.573-0.189 1.223-0.403 1.77-0.814 0.974-0.731 1.471-2.025 1.236-3.22-0.122-0.619-0.447-1.215-0.915-1.677-0.204-0.202-0.43-0.374-0.672-0.514h0.579c0.799 0 1.55-0.311 2.116-0.876 0.388-0.388 0.904-0.602 1.452-0.602h0.603c0.799 0 1.55-0.311 2.115-0.876l0.657-0.657c0.297-0.297 0.385-0.74 0.224-1.129zM18.834 12.325c0.187 0.255 0.442 0.469 0.745 0.61 0.538 0.25 1.196 0.275 1.852 0.070 0.090-0.028 0.177-0.059 0.261-0.089 0.213-0.076 0.415-0.148 0.58-0.136 0.197 0.015 0.393 0.183 0.446 0.383 0.055 0.206-0.030 0.459-0.202 0.602-0.145 0.12-0.367 0.193-0.582 0.264l-4.569 1.512v-3.216l1.47 0zM14.423 2.515c0-0.87 0.708-1.578 1.577-1.578s1.577 0.708 1.577 1.578c0 0.609-0.34 1.152-0.888 1.419-0.161 0.079-0.263 0.242-0.263 0.421v11.495l-0.881 0.292c0.014-0.045 0.022-0.093 0.022-0.142v-11.647c0-0.179-0.102-0.342-0.262-0.421-0.544-0.268-0.883-0.811-0.883-1.417zM11.763 9.51c-0.659-0.118-1.299 0.033-1.867 0.236-0.329-0.12-0.672-0.181-1.024-0.181h-1.227c-0.549 0-1.065-0.214-1.452-0.602-0.565-0.565-1.316-0.876-2.115-0.876h-0.603c-0.549 0-1.065-0.214-1.452-0.602l-0.657-0.657c-0.012-0.011-0.047-0.047-0.021-0.107s0.075-0.061 0.091-0.061h0.831c2.548 0 5.086-0.342 7.543-1.016 1.632-0.448 3.392-0.080 4.707 0.984 0.036 0.029 0.075 0.052 0.115 0.068v4.692h-1.188c0.002-0.033 0.003-0.066 0.002-0.099-0.013-0.963-0.876-1.635-1.681-1.778zM9.318 13.648c-0.12-0.128-0.12-0.329-0.080-0.474s0.142-0.318 0.31-0.368c0.233-0.069 0.519 0.016 0.85 0.114 0.162 0.048 0.33 0.098 0.506 0.133 0.594 0.118 1.178 0.032 1.645-0.243 0.214-0.126 0.397-0.294 0.542-0.485h1.54v3.211c-1.565-0.496-3.137-1.021-4.681-1.564-0.229-0.081-0.489-0.172-0.63-0.324zM15.997 31.062c-0.237 0-0.429-0.193-0.429-0.429v-4.884c0.006-0.003 0.013-0.007 0.019-0.010 0.263-0.137 0.541-0.274 0.809-0.407 0.010-0.005 0.020-0.010 0.031-0.015v5.316c0 0.237-0.193 0.429-0.429 0.429zM18.553 25.441c0.643 0.661 0.99 1.453 0.953 2.173-0.022 0.431-0.21 0.841-0.486 1.136 0.097-0.594 0.098-1.254-0.16-1.874-0.256-0.615-0.747-1.148-1.496-1.628v-0.404c0.095-0.050 0.19-0.102 0.284-0.154 0.364 0.253 0.656 0.496 0.905 0.752zM19.358 18.933c0.42 0.676 0.517 1.579 0.259 2.415-0.072 0.233-0.169 0.455-0.29 0.659-0.693 1.175-2.042 1.841-3.346 2.484-0.273 0.135-0.555 0.274-0.828 0.416-0.811 0.423-1.694 0.984-2.087 1.933-0.252 0.608-0.248 1.251-0.143 1.89-0.261-0.282-0.44-0.667-0.477-1.080-0.063-0.7 0.235-1.475 0.817-2.128 0.568-0.637 1.328-1.101 2.064-1.509 0.158-0.088 0.318-0.174 0.478-0.26 0.645-0.349 1.312-0.709 1.92-1.17 0.347-0.263 0.778-0.634 1.026-1.165 0.404-0.865 0.173-1.955-0.548-2.593-0.235-0.208-0.506-0.357-0.775-0.474l1.032-0.34c0.387 0.271 0.681 0.572 0.898 0.921zM17.364 19.37c0.078 0.048 0.152 0.1 0.218 0.159 0.404 0.357 0.544 1.013 0.32 1.494-0.102 0.218-0.271 0.424-0.538 0.651v-2.303h0zM15.997 18.824c0.029 0.018 0.061 0.033 0.095 0.045 0.111 0.037 0.223 0.075 0.334 0.113v3.349c-0.277 0.168-0.564 0.327-0.859 0.487v-3.852c0.015-0.005 0.029-0.010 0.044-0.014l0.386-0.127zM14.63 21.795c-0.169-0.114-0.324-0.237-0.444-0.382-0.401-0.484-0.374-1.31 0.059-1.767 0.109-0.115 0.241-0.212 0.386-0.296v2.445zM24.443 12.875c0.165 0.836-0.197 1.778-0.879 2.29-0.425 0.319-0.972 0.499-1.501 0.673l-6.746 2.223c-0.559 0.184-1.255 0.414-1.754 0.941-0.763 0.805-0.807 2.155-0.1 3.009 0.328 0.396 0.76 0.646 1.142 0.867 0.008 0.005 0.016 0.008 0.025 0.013v0.441c-0.15 0.085-0.3 0.174-0.449 0.266-0.108-0.065-0.209-0.129-0.308-0.194-1.060-0.708-1.631-1.555-1.697-2.517-0.078-1.141 0.306-2.11 1.079-2.729 0.575-0.46 1.322-0.707 2.044-0.946l6.927-2.292c0.269-0.089 0.604-0.2 0.885-0.432 0.455-0.376 0.66-1.005 0.511-1.565-0.156-0.588-0.683-1.030-1.28-1.077-0.365-0.028-0.686 0.087-0.968 0.188-0.078 0.028-0.152 0.055-0.224 0.077-0.434 0.135-0.852 0.126-1.177-0.025-0.324-0.151-0.554-0.479-0.548-0.781 0.007-0.36 0.383-0.802 0.978-0.889 0.326-0.048 0.669 0.004 0.967 0.144 0.075 0.035 0.152 0.079 0.234 0.124 0.132 0.074 0.282 0.158 0.449 0.221 0.172 0.065 0.344 0.102 0.497 0.135 0.075 0.016 0.145 0.031 0.212 0.049 0.378 0.098 0.733 0.304 1.027 0.595 0.336 0.332 0.568 0.755 0.654 1.191z"></path>
</symbol>
<symbol id="icon-heart" viewBox="0 0 32 32">
<path d="M9.696 1.294c-2.476 0-4.965 0.946-6.858 2.839-3.768 3.768-3.782 9.854-0.051 13.646v0.010l12.73 12.719c0.268 0.264 0.698 0.264 0.967 0l12.73-12.719c0-0.003 0-0.007 0-0.010 3.731-3.791 3.717-9.877-0.051-13.646-1.871-1.871-4.32-2.817-6.767-2.839-2.306-0.020-4.542 0.677-6.39 2.299-1.825-1.605-4.029-2.299-6.309-2.299zM9.696 2.668c2.103 0 4.195 0.801 5.82 2.401 0.268 0.264 0.698 0.264 0.967 0 1.645-1.619 3.774-2.42 5.902-2.401 2.098 0.019 4.188 0.83 5.8 2.442 3.248 3.248 3.256 8.435 0.041 11.702l-12.221 12.231-12.231-12.231c-3.216-3.267-3.207-8.454 0.041-11.702 1.632-1.632 3.757-2.442 5.882-2.442z"></path>
<path d="M14.072 9.801c-0.261 0.036-0.478 0.218-0.56 0.468l-1.689 5.037h-5.017c-0.379 0.004-0.683 0.313-0.682 0.692-0.002 0.379 0.303 0.688 0.682 0.692h5.515c0.295-0.001 0.557-0.189 0.651-0.468l1.191-3.561 3.022 9.066c0.125 0.36 0.517 0.55 0.877 0.425 0.199-0.069 0.356-0.226 0.425-0.425l1.689-5.037h5.017c0.379-0.004 0.683-0.313 0.682-0.692 0.002-0.379-0.303-0.688-0.682-0.692h-5.515c-0.301-0.002-0.569 0.191-0.661 0.478l-1.18 3.561-3.022-9.077c-0.103-0.314-0.415-0.51-0.743-0.468z"></path>
</symbol>
<symbol id="icon-treatment" viewBox="0 0 32 32">
<path d="M32 16c0 8.837-7.163 16-16 16s-16-7.163-16-16c0-8.837 7.163-16 16-16s16 7.163 16 16z"></path>
<path fill="#fff" style="fill: var(--color2, #fff)" d="M17.627 8.949h-2.712c-0.539 0-1.057 0.214-1.438 0.596s-0.596 0.899-0.596 1.438v0.678h-1.356c-0.539 0-1.057 0.214-1.438 0.596s-0.596 0.899-0.596 1.438v6.78c0 0.539 0.214 1.057 0.596 1.438s0.899 0.596 1.438 0.596h9.492c0.539 0 1.057-0.214 1.438-0.596s0.596-0.899 0.596-1.438v-6.78c0-0.539-0.214-1.057-0.596-1.438s-0.899-0.596-1.438-0.596h-1.356v-0.678c0-0.539-0.214-1.057-0.596-1.438s-0.899-0.596-1.438-0.596zM14.237 10.983c0-0.18 0.071-0.352 0.199-0.479s0.3-0.199 0.479-0.199h2.712c0.18 0 0.352 0.071 0.479 0.199s0.199 0.3 0.199 0.479v0.678h-4.068v-0.678zM21.695 13.695v6.78c0 0.18-0.071 0.352-0.199 0.479s-0.3 0.199-0.479 0.199h-9.492c-0.18 0-0.352-0.071-0.479-0.199s-0.199-0.3-0.199-0.479v-6.78c0-0.18 0.071-0.352 0.199-0.479s0.3-0.199 0.479-0.199h9.492c0.18 0 0.352 0.071 0.479 0.199s0.199 0.3 0.199 0.479z"></path>
<path fill="#fff" style="fill: var(--color2, #fff)" d="M16.949 15.051h-1.356v1.356h-1.356v1.356h1.356v1.356h1.356v-1.356h1.356v-1.356h-1.356v-1.356z"></path>
</symbol>
<symbol id="icon-diagnostic" viewBox="0 0 32 32">
<path d="M32 16c0 8.837-7.163 16-16 16s-16-7.163-16-16c0-8.837 7.163-16 16-16s16 7.163 16 16z"></path>
<path fill="#fff" style="fill: var(--color2, #fff)" d="M15.709 14.004h-0.974v-0.974c0-0.090-0.073-0.163-0.163-0.163h-1.484c-0.090 0-0.163 0.073-0.163 0.163v0.974h-0.974c-0.090 0-0.163 0.073-0.163 0.163v1.484c0 0.090 0.073 0.163 0.163 0.163h0.974v0.974c0 0.090 0.073 0.163 0.163 0.163h1.484c0.090 0 0.163-0.073 0.163-0.163v-0.974h0.974c0.090 0 0.163-0.073 0.163-0.163v-1.484c0-0.090-0.073-0.163-0.163-0.163zM15.546 15.488h-0.974c-0.090 0-0.163 0.073-0.163 0.163v0.974h-1.159v-0.974c0-0.090-0.073-0.163-0.163-0.163h-0.974v-1.159h0.974c0.090 0 0.163-0.073 0.163-0.163v-0.974h1.159v0.974c0 0.090 0.073 0.163 0.163 0.163h0.974v1.159z"></path>
<path fill="#fff" style="fill: var(--color2, #fff)" d="M9.925 20.598h4.719v1.477c0 0.090 0.073 0.163 0.163 0.163h7.81c0.090 0 0.163-0.073 0.163-0.163v-11.052c0-0.090-0.073-0.163-0.163-0.163h-1.147v-0.251c0.298-0.12 0.488-0.43 0.447-0.759-0.045-0.359-0.365-0.629-0.744-0.629h-1.775c-0.38 0-0.699 0.271-0.744 0.629-0.041 0.329 0.149 0.639 0.447 0.759v0.251h-1.202v-1.477c0-0.090-0.073-0.163-0.163-0.163h-7.81c-0.090 0-0.163 0.073-0.163 0.163v11.052c0 0.090 0.073 0.163 0.163 0.163zM17.109 20.598l-2.139 1.191v-1.191h2.139zM18.977 9.89c0.024-0.193 0.209-0.344 0.421-0.344h1.775c0.212 0 0.397 0.151 0.421 0.344 0.026 0.209-0.111 0.398-0.318 0.439-0.076 0.015-0.131 0.082-0.131 0.16v8.66c0 0.47-0.385 0.852-0.859 0.852s-0.859-0.382-0.859-0.852v-8.66c0-0.078-0.055-0.145-0.131-0.16-0.207-0.041-0.344-0.229-0.318-0.439zM19.101 11.185v7.963c0 0.649 0.531 1.177 1.185 1.177s1.185-0.528 1.185-1.177v-7.963h0.984v10.727h-7.037l2.397-1.334c0.006-0.004 0.010-0.009 0.016-0.014 0.009-0.007 0.018-0.013 0.025-0.022s0.012-0.017 0.017-0.026c0.005-0.009 0.010-0.018 0.014-0.027s0.005-0.022 0.007-0.033c0.001-0.007 0.004-0.013 0.004-0.021v-9.25h1.202zM10.088 9.546h7.485v10.727h-7.485v-10.727z"></path>
<path fill="#fff" style="fill: var(--color2, #fff)" d="M20.538 15.558c0.090 0 0.163-0.073 0.163-0.163v-0.599c0-0.090-0.073-0.163-0.163-0.163s-0.163 0.073-0.163 0.163v0.599c0 0.090 0.073 0.163 0.163 0.163z"></path>
<path fill="#fff" style="fill: var(--color2, #fff)" d="M20.538 18.247c0.090 0 0.163-0.073 0.163-0.163v-1.768c0-0.090-0.073-0.163-0.163-0.163s-0.163 0.073-0.163 0.163v1.768c0 0.090 0.073 0.163 0.163 0.163z"></path>
</symbol>
<symbol id="icon-registration" viewBox="0 0 32 32">
<path d="M32 16c0 8.837-7.163 16-16 16s-16-7.163-16-16c0-8.837 7.163-16 16-16s16 7.163 16 16z"></path>
<path fill="#fff" style="fill: var(--color2, #fff)" d="M23.549 13.335c-0.459-0.459-1.291-0.444-1.767 0.031l-0.934 0.934v-4.928c0-0.701-0.57-1.271-1.271-1.271h-6.864c-0.135 0-0.264 0.054-0.36 0.149l-3.559 3.559c-0.095 0.095-0.149 0.224-0.149 0.36v9.915c0 0.701 0.57 1.271 1.271 1.271h9.661c0.701 0 1.271-0.57 1.271-1.271v-4.312l2.67-2.67c0.496-0.496 0.509-1.288 0.031-1.767zM21.155 15.431l0.298 0.298-3.141 3.141-0.596 0.298 0.298-0.595 3.141-3.142zM12.203 9.838v1.569c0 0.138-0.116 0.254-0.254 0.254h-1.569l1.823-1.823zM19.831 22.085c0 0.138-0.116 0.254-0.254 0.254h-9.661c-0.138 0-0.254-0.116-0.254-0.254v-9.407h2.288c0.701 0 1.271-0.57 1.271-1.271v-2.288h6.356c0.138 0 0.254 0.116 0.254 0.254v5.945l-2.594 2.594c-0.039 0.039-0.071 0.083-0.095 0.132l-1.017 2.034c-0.098 0.196-0.059 0.432 0.095 0.587 0.098 0.098 0.228 0.149 0.36 0.149 0.077 0 0.155-0.017 0.227-0.054l2.034-1.017c0.049-0.024 0.094-0.057 0.132-0.095l0.858-0.858v3.295zM22.799 14.383l-0.627 0.627-0.298-0.298 0.627-0.627c0.082-0.081 0.208-0.151 0.329-0.031 0.081 0.081 0.067 0.231-0.031 0.329zM13.071 14.352c0.199 0.199 0.199 0.52 0 0.719l-1.017 1.017c-0.099 0.099-0.229 0.149-0.36 0.149s-0.26-0.050-0.36-0.149l-0.508-0.508c-0.199-0.199-0.199-0.52 0-0.719s0.52-0.199 0.719 0l0.149 0.149 0.657-0.657c0.199-0.199 0.52-0.199 0.719 0zM13.071 16.895c0.199 0.199 0.199 0.52 0 0.719l-1.017 1.017c-0.099 0.099-0.229 0.149-0.36 0.149s-0.26-0.050-0.36-0.149l-0.508-0.508c-0.199-0.199-0.199-0.52 0-0.719s0.52-0.199 0.719 0l0.149 0.149 0.657-0.657c0.199-0.199 0.52-0.199 0.719 0zM13.071 19.437c0.199 0.199 0.199 0.52 0 0.719l-1.017 1.017c-0.099 0.099-0.229 0.149-0.36 0.149s-0.26-0.050-0.36-0.149l-0.508-0.508c-0.199-0.199-0.199-0.52 0-0.719s0.52-0.199 0.719 0l0.149 0.149 0.657-0.657c0.199-0.199 0.52-0.199 0.719 0zM13.729 15.22c0-0.281 0.228-0.508 0.508-0.508h4.068c0.281 0 0.508 0.227 0.508 0.508s-0.228 0.508-0.508 0.508h-4.068c-0.281 0-0.508-0.227-0.508-0.508zM15.763 18.271h-1.525c-0.281 0-0.508-0.227-0.508-0.508s0.228-0.508 0.508-0.508h1.525c0.281 0 0.508 0.227 0.508 0.508s-0.228 0.508-0.508 0.508zM15.763 20.305c0 0.281-0.228 0.508-0.508 0.508h-1.017c-0.281 0-0.508-0.227-0.508-0.508s0.228-0.508 0.508-0.508h1.017c0.281 0 0.508 0.227 0.508 0.508z"></path>
</symbol>
<symbol id="icon-phone" viewBox="0 0 32 32">
<path d="M25.291 19.823c-0.655-0.682-1.445-1.047-2.283-1.047-0.831 0-1.628 0.358-2.31 1.040l-2.134 2.127c-0.176-0.095-0.351-0.182-0.52-0.27-0.243-0.122-0.473-0.236-0.669-0.358-1.999-1.27-3.816-2.924-5.558-5.065-0.844-1.067-1.412-1.965-1.824-2.877 0.554-0.507 1.067-1.033 1.567-1.54 0.189-0.189 0.378-0.385 0.567-0.574 1.418-1.418 1.418-3.255 0-4.674l-1.844-1.844c-0.209-0.209-0.425-0.425-0.628-0.642-0.405-0.419-0.831-0.851-1.27-1.256-0.655-0.648-1.439-0.993-2.263-0.993s-1.621 0.344-2.296 0.993c-0.007 0.007-0.007 0.007-0.014 0.014l-2.296 2.317c-0.865 0.865-1.358 1.918-1.466 3.141-0.162 1.972 0.419 3.809 0.865 5.011 1.094 2.951 2.729 5.687 5.167 8.618 2.958 3.532 6.517 6.322 10.583 8.287 1.553 0.736 3.627 1.607 5.943 1.756 0.142 0.007 0.29 0.014 0.425 0.014 1.56 0 2.87-0.561 3.897-1.675 0.007-0.014 0.020-0.020 0.027-0.034 0.351-0.425 0.756-0.81 1.182-1.222 0.29-0.277 0.588-0.567 0.878-0.871 0.669-0.696 1.020-1.506 1.020-2.337 0-0.837-0.358-1.641-1.040-2.317l-3.708-3.721zM27.709 26.934c-0.007 0-0.007 0.007 0 0-0.263 0.284-0.534 0.54-0.824 0.824-0.439 0.419-0.885 0.858-1.304 1.351-0.682 0.729-1.486 1.074-2.539 1.074-0.101 0-0.209 0-0.311-0.007-2.006-0.128-3.87-0.912-5.268-1.58-3.823-1.851-7.179-4.478-9.969-7.807-2.303-2.776-3.843-5.342-4.863-8.098-0.628-1.682-0.858-2.992-0.756-4.228 0.068-0.79 0.371-1.445 0.932-2.006l2.303-2.303c0.331-0.311 0.682-0.48 1.027-0.48 0.425 0 0.77 0.257 0.986 0.473 0.007 0.007 0.013 0.013 0.020 0.020 0.412 0.385 0.804 0.783 1.216 1.209 0.209 0.216 0.425 0.432 0.642 0.655l1.844 1.844c0.716 0.716 0.716 1.378 0 2.094-0.196 0.196-0.385 0.392-0.581 0.581-0.567 0.581-1.108 1.121-1.695 1.648-0.014 0.014-0.027 0.020-0.034 0.034-0.581 0.581-0.473 1.148-0.351 1.533 0.007 0.020 0.014 0.041 0.020 0.061 0.48 1.162 1.155 2.256 2.181 3.559l0.007 0.007c1.864 2.296 3.829 4.086 5.997 5.457 0.277 0.176 0.561 0.317 0.831 0.453 0.243 0.122 0.473 0.236 0.669 0.358 0.027 0.013 0.054 0.034 0.081 0.047 0.23 0.115 0.446 0.169 0.669 0.169 0.561 0 0.912-0.351 1.027-0.466l2.31-2.31c0.23-0.23 0.594-0.507 1.020-0.507 0.419 0 0.763 0.263 0.973 0.493 0.007 0.007 0.007 0.007 0.014 0.013l3.721 3.721c0.696 0.689 0.696 1.398 0.007 2.114z"></path>
<path d="M17.295 7.612c1.77 0.297 3.377 1.135 4.66 2.418s2.114 2.891 2.418 4.66c0.074 0.446 0.459 0.756 0.898 0.756 0.054 0 0.101-0.007 0.155-0.014 0.5-0.081 0.831-0.554 0.75-1.054-0.365-2.141-1.378-4.093-2.924-5.639s-3.498-2.56-5.639-2.924c-0.5-0.081-0.966 0.25-1.054 0.743s0.236 0.973 0.736 1.054z"></path>
<path d="M31.963 14.116c-0.601-3.526-2.262-6.734-4.815-9.287s-5.761-4.214-9.287-4.815c-0.493-0.088-0.959 0.25-1.047 0.743-0.081 0.5 0.25 0.966 0.75 1.054 3.147 0.534 6.018 2.026 8.3 4.302 2.283 2.283 3.769 5.153 4.302 8.3 0.074 0.446 0.459 0.756 0.898 0.756 0.054 0 0.101-0.007 0.155-0.014 0.493-0.074 0.831-0.547 0.743-1.040z"></path>
</symbol>
<symbol id="icon-mail" viewBox="0 0 32 32">
<path d="M29.091 4.363h-26.182c-1.607 0-2.909 1.302-2.909 2.909v17.455c0 1.607 1.302 2.909 2.909 2.909h26.182c1.607 0 2.909-1.302 2.909-2.909v-17.455c0-1.607-1.302-2.909-2.909-2.909zM2.909 5.818h26.182c0.166 0.001 0.331 0.031 0.487 0.087l-12.589 12.589c-0.541 0.544-1.42 0.547-1.964 0.006-0.002-0.002-0.004-0.004-0.006-0.006l-12.596-12.589c0.156-0.057 0.321-0.086 0.487-0.087zM1.455 24.727v-17.454c-0.007-0.085-0.007-0.17 0-0.255l9.004 8.982-9.004 8.982c-0.007-0.085-0.007-0.17 0-0.255zM29.091 26.182h-26.182c-0.166-0.001-0.331-0.031-0.487-0.087l9.069-9.069 2.495 2.495c1.108 1.113 2.909 1.116 4.021 0.008 0.003-0.002 0.005-0.005 0.008-0.008l2.495-2.495 9.069 9.069c-0.156 0.057-0.321 0.086-0.487 0.087zM30.545 24.982l-9.004-8.982 9.004-8.982c0.007 0.085 0.007 0.17 0 0.255v17.455c0.007 0.085 0.007 0.17 0 0.254z"></path>
</symbol>
<symbol id="icon-instagram" viewBox="0 0 32 32">
<path d="M19.063 16c0 1.691-1.371 3.063-3.063 3.063s-3.063-1.371-3.063-3.063c0-1.691 1.371-3.063 3.063-3.063s3.063 1.371 3.063 3.063z"></path>
<path d="M23.162 10.582c-0.147-0.399-0.382-0.76-0.687-1.056-0.296-0.305-0.657-0.54-1.056-0.687-0.324-0.126-0.81-0.275-1.706-0.316-0.969-0.044-1.26-0.054-3.713-0.054s-2.744 0.009-3.713 0.053c-0.896 0.041-1.382 0.191-1.706 0.316-0.399 0.147-0.76 0.382-1.056 0.687-0.305 0.296-0.54 0.657-0.688 1.056-0.126 0.324-0.275 0.81-0.316 1.706-0.044 0.969-0.054 1.259-0.054 3.713s0.010 2.744 0.054 3.713c0.041 0.896 0.19 1.382 0.316 1.706 0.147 0.399 0.382 0.76 0.687 1.056 0.296 0.305 0.657 0.54 1.056 0.687 0.324 0.126 0.81 0.276 1.706 0.316 0.969 0.044 1.259 0.053 3.712 0.053s2.744-0.009 3.713-0.053c0.896-0.041 1.382-0.19 1.706-0.316 0.801-0.309 1.435-0.942 1.744-1.744 0.126-0.324 0.275-0.81 0.316-1.706 0.044-0.969 0.053-1.26 0.053-3.713s-0.009-2.744-0.053-3.713c-0.041-0.896-0.19-1.382-0.316-1.706zM16 20.718c-2.606 0-4.718-2.112-4.718-4.718s2.112-4.718 4.718-4.718c2.605 0 4.718 2.112 4.718 4.718s-2.112 4.718-4.718 4.718zM20.904 12.198c-0.609 0-1.103-0.494-1.103-1.103s0.494-1.103 1.103-1.103 1.103 0.494 1.103 1.103c-0 0.609-0.494 1.103-1.103 1.103z"></path>
<path d="M16 0c-8.835 0-16 7.165-16 16s7.165 16 16 16c8.835 0 16-7.165 16-16s-7.165-16-16-16zM25.132 19.788c-0.044 0.978-0.2 1.646-0.427 2.23-0.477 1.234-1.453 2.21-2.687 2.687-0.584 0.227-1.252 0.382-2.23 0.427-0.98 0.045-1.293 0.055-3.788 0.055s-2.808-0.011-3.788-0.055c-0.978-0.045-1.646-0.2-2.23-0.427-0.613-0.231-1.168-0.592-1.627-1.060-0.467-0.459-0.829-1.014-1.060-1.627-0.227-0.584-0.383-1.252-0.427-2.23-0.045-0.98-0.056-1.293-0.056-3.788s0.011-2.808 0.055-3.788c0.044-0.978 0.2-1.646 0.427-2.23 0.231-0.613 0.593-1.168 1.060-1.627 0.459-0.468 1.014-0.829 1.627-1.060 0.584-0.227 1.252-0.382 2.23-0.427 0.98-0.045 1.293-0.055 3.788-0.055s2.808 0.011 3.788 0.056c0.978 0.044 1.646 0.2 2.23 0.427 0.613 0.231 1.168 0.593 1.627 1.060 0.467 0.459 0.829 1.014 1.059 1.627 0.227 0.584 0.383 1.252 0.427 2.23 0.045 0.98 0.055 1.293 0.055 3.788s-0.011 2.808-0.055 3.788z"></path>
</symbol>
<symbol id="icon-youtube" viewBox="0 0 32 32">
<path d="M13.782 18.581l4.438-2.575-4.438-2.587v5.162z"></path>
<path d="M16 0c-3.165 0-6.258 0.938-8.889 2.696s-4.682 4.257-5.893 7.181c-1.211 2.924-1.528 6.141-0.91 9.244s2.141 5.955 4.379 8.192c2.238 2.238 5.089 3.761 8.192 4.379s6.321 0.3 9.244-0.911c2.924-1.211 5.422-3.262 7.181-5.893s2.696-5.725 2.696-8.889c0-4.244-1.686-8.313-4.686-11.314s-7.070-4.686-11.314-4.686v0zM24.421 18.832c0 0.418-0.082 0.833-0.242 1.22s-0.395 0.738-0.69 1.034c-0.296 0.296-0.647 0.531-1.034 0.691s-0.801 0.243-1.22 0.243h-10.472c-0.418 0-0.833-0.082-1.219-0.243s-0.738-0.395-1.034-0.691c-0.296-0.296-0.53-0.647-0.69-1.034s-0.242-0.801-0.242-1.22v-5.663c-0-0.418 0.082-0.833 0.242-1.22s0.395-0.738 0.69-1.034c0.296-0.296 0.647-0.531 1.034-0.691s0.801-0.243 1.219-0.243h10.472c0.418 0 0.833 0.082 1.22 0.243s0.738 0.395 1.034 0.691c0.296 0.296 0.53 0.647 0.69 1.034s0.242 0.801 0.242 1.22v5.663z"></path>
</symbol>
<symbol id="icon-twitter" viewBox="0 0 32 32">
<path d="M22.362 12.737c0.006 0.141 0.010 0.282 0.010 0.425 0 4.337-3.302 9.339-9.34 9.339-1.854 0-3.579-0.543-5.032-1.474 0.257 0.030 0.518 0.045 0.783 0.045 1.538 0 2.953-0.524 4.077-1.405-1.437-0.026-2.649-0.975-3.067-2.279 0.201 0.038 0.406 0.058 0.618 0.058 0.299 0 0.589-0.040 0.865-0.115-1.502-0.301-2.633-1.628-2.633-3.218v-0.042c0.442 0.246 0.949 0.394 1.487 0.411-0.881-0.589-1.461-1.594-1.461-2.732 0-0.602 0.162-1.166 0.445-1.651 1.619 1.986 4.038 3.293 6.766 3.43-0.056-0.24-0.085-0.491-0.085-0.748 0-1.813 1.47-3.283 3.282-3.283 0.945 0 1.798 0.399 2.396 1.037 0.748-0.147 1.451-0.42 2.085-0.796-0.245 0.766-0.766 1.409-1.443 1.816 0.664-0.080 1.296-0.256 1.885-0.517-0.44 0.658-0.997 1.236-1.638 1.699zM16 0c-8.837 0-16 7.163-16 16s7.163 16 16 16c8.837 0 16-7.164 16-16s-7.163-16-16-16z"></path>
</symbol>
<symbol id="icon-facebook" viewBox="0 0 32 32">
<path d="M16 0c-8.822 0-16 7.178-16 16s7.178 16 16 16c8.822 0 16-7.178 16-16s-7.177-16-16-16zM19.979 16.563h-2.603v9.278h-3.857c0 0 0-5.070 0-9.278h-1.834v-3.279h1.834v-2.121c0-1.519 0.722-3.893 3.893-3.893l2.858 0.011v3.183c0 0-1.737 0-2.075 0s-0.818 0.169-0.818 0.893v1.927h2.939l-0.337 3.279z"></path>
</symbol>
<symbol id="icon-flag-ua" viewBox="0 0 48 32">
<path fill="#005bbb" style="fill: var(--color1, #005bbb)" d="M0 0h48v32h-48v-32z"></path>
<path fill="#ffd500" style="fill: var(--color2, #ffd500)" d="M0 16h48v16h-48v-16z"></path>
</symbol>
<symbol id="icon-flag-en" viewBox="0 0 49 32">
<path fill="#f10002" style="fill: var(--color1, #f10002)" d="M21.917 0h4.92v32h-4.92v-32z"></path>
<path fill="#f10002" style="fill: var(--color1, #f10002)" d="M0 13.257h48.755v5.486h-48.755v-5.486z"></path>
<path fill="#092c70" style="fill: var(--color2, #092c70)" d="M5.368 0l15.655 11.429v-11.429h-15.655z"></path>
<path fill="#092c70" style="fill: var(--color2, #092c70)" d="M0 2.743v9.6h13.866l-13.866-9.6z"></path>
<path fill="#f10002" style="fill: var(--color1, #f10002)" d="M0 0v1.371l16.103 10.972h2.236l-18.339-12.343z"></path>
<path fill="#092c70" style="fill: var(--color2, #092c70)" d="M43.387 0l-15.655 11.429v-11.429h15.655z"></path>
<path fill="#092c70" style="fill: var(--color2, #092c70)" d="M48.755 2.743v9.6h-13.866l13.866-9.6z"></path>
<path fill="#f10002" style="fill: var(--color1, #f10002)" d="M48.755 0v1.371l-16.103 10.972h-2.236l18.339-12.343z"></path>
<path fill="#092c70" style="fill: var(--color2, #092c70)" d="M43.387 32.001l-15.655-11.429v11.429h15.655z"></path>
<path fill="#092c70" style="fill: var(--color2, #092c70)" d="M48.755 29.258v-9.6h-13.866l13.866 9.6z"></path>
<path fill="#f10002" style="fill: var(--color1, #f10002)" d="M48.755 32.001v-1.371l-16.103-10.972h-2.236l18.339 12.343z"></path>
<path fill="#092c70" style="fill: var(--color2, #092c70)" d="M15.655 19.658l-15.655 11.429v-11.429h15.655z"></path>
<path fill="#092c70" style="fill: var(--color2, #092c70)" d="M21.023 22.4v9.6h-13.866l13.866-9.6z"></path>
<path fill="#f10002" style="fill: var(--color1, #f10002)" d="M21.023 19.658v1.371l-16.103 10.972h-2.236l18.339-12.343z"></path>
</symbol>
</defs>
</svg>
